<svg xmlns="http://www.w3.org/2000/svg" viewBox="0 0 512 512">
  <!-- Background -->
  <rect width="512" height="512" rx="100" fill="#4CAF50" />
  
  <!-- Inner circular background -->
  <circle cx="256" cy="256" r="200" fill="#3A9E3F" />
  <circle cx="256" cy="256" r="180" fill="#318635" />
  
  <!-- FS Letters -->
  <g transform="translate(256, 256) scale(1.8)">
    <!-- F Letter -->
    <path d="M-50,-50 L-50,50 L-20,50 L-20,10 L20,10 L20,-20 L-20,-20 L-20,-50 Z" 
          fill="white" stroke="#318635" stroke-width="3" />
    
    <!-- S Letter -->
    <path d="M50,50 L50,20 L10,20 C10,20 10,0 30,0 L50,0 L50,-50 L-10,-50 L-10,-20 L30,-20 C30,-20 30,0 10,0 L-10,0 L-10,50 Z" 
          fill="white" stroke="#318635" stroke-width="3" />
  </g>
  
  <!-- Calendar overlay elements -->
  <rect x="156" y="350" width="200" height="40" rx="10" fill="#E53935" opacity="0.9" />
  <text x="256" y="378" font-family="Arial, sans-serif" font-size="24" font-weight="bold" text-anchor="middle" fill="white">2025</text>
  
  <!-- Festival elements -->
  
  <!-- Music notes -->
  <g transform="translate(120, 100) scale(0.5)">
    <path d="M100,55 C80,55 80,95 100,95 C120,95 120,55 100,55 M100,95 L100,180 M100,180 C80,180 80,220 100,220 C120,220 120,180 100,180" stroke="white" stroke-width="8" fill="none" />
    <circle cx="118" cy="55" r="18" fill="white" />
  </g>
  
  <g transform="translate(370, 100) scale(0.5)">
    <path d="M100,55 C80,55 80,95 100,95 C120,95 120,55 100,55 M100,95 L100,180 M100,180 C80,180 80,220 100,220 C120,220 120,180 100,180" stroke="white" stroke-width="8" fill="none" />
    <circle cx="118" cy="55" r="18" fill="white" />
  </g>
  
  <!-- Stage lights -->
  <circle cx="150" cy="170" r="10" fill="#FFEB3B" />
  <circle cx="362" cy="170" r="10" fill="#FFEB3B" />
  <path d="M150 160 L130 120 L170 120 Z" fill="#FFF176" opacity="0.6" />
  <path d="M362 160 L342 120 L382 120 Z" fill="#FFF176" opacity="0.6" />
  
  <!-- Decorative circles -->
  <circle cx="100" cy="256" r="15" fill="white" opacity="0.4" />
  <circle cx="412" cy="256" r="15" fill="white" opacity="0.4" />
  <circle cx="256" cy="100" r="15" fill="white" opacity="0.4" />
  <circle cx="256" cy="412" r="15" fill="white" opacity="0.4" />
  
  <!-- Pulsing circles -->
  <circle cx="256" cy="256" r="150" fill="none" stroke="white" stroke-width="2" opacity="0.2" />
  <circle cx="256" cy="256" r="120" fill="none" stroke="white" stroke-width="2" opacity="0.3" />
  <circle cx="256" cy="256" r="90" fill="none" stroke="white" stroke-width="2" opacity="0.4" />
</svg>
